<svg id="Layer_1" data-name="Layer 1" xmlns="http://www.w3.org/2000/svg" viewBox="0 0 96 96"><defs><style>.cls-1{fill:none;stroke:#000;stroke-linecap:round;stroke-linejoin:round;stroke-width:1.97px;}</style></defs><title>egg, plate, breakfast, fork, knife, meal, food</title><circle class="cls-1" cx="48" cy="48" r="29.56"/><circle class="cls-1" cx="48" cy="48" r="16.75"/><path class="cls-1" d="M94.31,33.78c0-4.63-3.09-9.43-6.9-9.43s-6.9,4.8-6.9,9.43c0,3.79,2.08,6.29,4.93,7.06V69.68a2,2,0,0,0,3.94,0V40.84C92.23,40.07,94.31,37.57,94.31,33.78Z"/><polyline class="cls-1" points="1.69 34.21 1.69 33.22 1.69 24.35"/><polyline class="cls-1" points="13.52 34.21 13.52 33.22 13.52 24.35"/><polyline class="cls-1" points="5.63 34.21 5.63 33.22 5.63 24.35"/><polyline class="cls-1" points="9.57 34.21 9.57 33.22 9.57 24.35"/><line class="cls-1" x1="1.69" y1="34.21" x2="1.69" y2="33.22"/><line class="cls-1" x1="5.63" y1="34.21" x2="5.63" y2="33.22"/><line class="cls-1" x1="5.63" y1="34.21" x2="5.63" y2="33.22"/><line class="cls-1" x1="9.58" y1="34.21" x2="9.58" y2="33.22"/><line class="cls-1" x1="9.58" y1="34.21" x2="9.58" y2="33.22"/><line class="cls-1" x1="13.52" y1="34.21" x2="13.52" y2="33.22"/><path class="cls-1" d="M11.55,36.18a2,2,0,0,1-2-2,2,2,0,0,1-2,2,2,2,0,0,1-2-2,2,2,0,0,1-3.94,0v2a4,4,0,0,0,3.94,3.94V69.68a2,2,0,0,0,4,0V40.12a3.94,3.94,0,0,0,3.94-3.94v-2A2,2,0,0,1,11.55,36.18Z"/></svg>