<?xml version="1.0" encoding="iso-8859-1"?>
<!-- Uploaded to: SVG Repo, www.svgrepo.com, Generator: SVG Repo Mixer Tools -->
<!DOCTYPE svg PUBLIC "-//W3C//DTD SVG 1.1//EN" "http://www.w3.org/Graphics/SVG/1.1/DTD/svg11.dtd">
<svg fill="#000000" height="800px" width="800px" version="1.1" id="Capa_1" xmlns="http://www.w3.org/2000/svg" xmlns:xlink="http://www.w3.org/1999/xlink" 
	 viewBox="0 0 297 297" xml:space="preserve">
<g>
	<path d="M254.145,59.425h-5.91c1.25-4.017,1.923-8.284,1.923-12.707c0-23.631-19.225-42.855-42.855-42.855H42.855
		C19.226,3.862,0,23.087,0,46.718c0,20.2,14.048,37.183,32.89,41.685v123.259c0,14.289,11.623,25.913,25.912,25.913h20.93v29.65
		c0,14.288,11.624,25.912,25.913,25.912h132.554c14.288,0,25.912-11.624,25.912-25.912V143.967
		c18.841-4.504,32.89-21.485,32.89-41.687C297,78.65,277.774,59.425,254.145,59.425z M52.822,211.662V79.607
		c0-5.504-4.463-9.967-9.967-9.967c-12.64,0-22.923-10.283-22.923-22.923c0-12.64,10.283-22.923,22.923-22.923h164.446
		c12.641,0,22.923,10.283,22.923,22.923c0,12.64-10.282,22.923-22.923,22.923c-5.504,0-9.966,4.463-9.966,9.967v132.055
		c0,3.241-2.739,5.98-5.98,5.98H58.802C55.561,217.643,52.822,214.903,52.822,211.662z M254.145,125.203
		c-5.504,0-9.967,4.463-9.967,9.967v132.056c0,3.24-2.739,5.98-5.98,5.98H105.645c-3.241,0-5.98-2.739-5.98-5.98v-29.65h91.691
		c14.289,0,25.913-11.624,25.913-25.913V88.403c6.658-1.591,12.712-4.747,17.765-9.046h19.111c12.64,0,22.923,10.283,22.923,22.923
		C277.067,114.921,266.784,125.203,254.145,125.203z"/>
	<path d="M93.184,58.428c-2.094,0-4.146,0.848-5.632,2.332c-1.485,1.485-2.342,3.538-2.342,5.642c0,2.103,0.856,4.156,2.342,5.642
		c1.485,1.484,3.538,2.332,5.632,2.332c2.102,0,4.155-0.848,5.641-2.332c1.484-1.485,2.332-3.539,2.332-5.642
		c0-2.104-0.848-4.156-2.332-5.642C97.339,59.275,95.285,58.428,93.184,58.428z"/>
	<path d="M158.962,58.428c-2.094,0-4.146,0.848-5.632,2.332c-1.485,1.485-2.342,3.538-2.342,5.642c0,2.103,0.856,4.156,2.342,5.642
		c1.485,1.484,3.538,2.332,5.632,2.332c2.103,0,4.156-0.848,5.641-2.332c1.484-1.485,2.332-3.539,2.332-5.642
		c0-2.104-0.848-4.156-2.332-5.642C163.118,59.275,161.064,58.428,158.962,58.428z"/>
	<path d="M126.072,107.762c-2.093,0-4.155,0.848-5.631,2.332c-1.485,1.485-2.342,3.538-2.342,5.642c0,2.103,0.856,4.156,2.342,5.642
		c1.485,1.483,3.538,2.331,5.631,2.331c2.103,0,4.156-0.848,5.642-2.331c1.484-1.485,2.332-3.539,2.332-5.642
		c0-2.104-0.848-4.156-2.332-5.642C130.229,108.609,128.175,107.762,126.072,107.762z"/>
	<path d="M158.962,157.096c-2.094,0-4.156,0.856-5.632,2.332c-1.485,1.485-2.342,3.538-2.342,5.642c0,2.103,0.856,4.155,2.342,5.641
		c1.485,1.484,3.538,2.332,5.632,2.332c2.103,0,4.156-0.848,5.641-2.332c1.484-1.485,2.332-3.538,2.332-5.641
		c0-2.104-0.848-4.156-2.332-5.642C163.118,157.952,161.064,157.096,158.962,157.096z"/>
	<path d="M93.184,157.096c-2.094,0-4.156,0.856-5.632,2.332c-1.485,1.485-2.342,3.538-2.342,5.642c0,2.103,0.856,4.155,2.342,5.641
		c1.485,1.484,3.538,2.332,5.632,2.332c2.102,0,4.155-0.848,5.641-2.332c1.484-1.485,2.332-3.538,2.332-5.641
		c0-2.104-0.848-4.156-2.332-5.642C97.339,157.952,95.285,157.096,93.184,157.096z"/>
</g>
</svg>