<?xml version="1.0" encoding="iso-8859-1"?>
<!-- Uploaded to: SVG Repo, www.svgrepo.com, Generator: SVG Repo Mixer Tools -->
<!DOCTYPE svg PUBLIC "-//W3C//DTD SVG 1.1//EN" "http://www.w3.org/Graphics/SVG/1.1/DTD/svg11.dtd">
<svg fill="#000000" height="800px" width="800px" version="1.1" id="Capa_1" xmlns="http://www.w3.org/2000/svg" xmlns:xlink="http://www.w3.org/1999/xlink" 
	 viewBox="0 0 297 297" xml:space="preserve">
<path d="M248.419,33.306h-9.588L220.827,4.715C218.979,1.779,215.754,0,212.287,0H84.713c-3.467,0-6.692,1.779-8.54,4.715
	L58.169,33.306h-9.588c-5.574,0-10.093,4.52-10.093,10.093c0,5.574,4.518,10.093,10.093,10.093H59.38l4.514,77.815
	c-2.298,0.309-4.439,1.392-6.04,3.107c-1.909,2.047-2.882,4.793-2.687,7.586l6.004,86.293c0.365,5.268,4.729,9.355,10.003,9.39
	l3.472,49.925C75.013,292.897,79.41,297,84.713,297h127.574c5.303,0,9.7-4.103,10.067-9.393l3.473-49.925
	c5.273-0.034,9.638-4.122,10.003-9.39L241.834,142c0.194-2.793-0.778-5.539-2.688-7.586c-1.601-1.716-3.742-2.799-6.04-3.107
	l4.514-77.815h10.799c5.573,0,10.093-4.519,10.093-10.093C258.512,37.825,253.992,33.306,248.419,33.306z M90.285,20.185h116.43
	l6.769,10.748H83.517L90.285,20.185z M216.348,217.5H80.652l-4.599-66.108h144.893L216.348,217.5z M202.872,276.815H94.128
	l-2.722-39.129h114.187L202.872,276.815z M212.892,131.206H84.108L79.6,53.491H217.4L212.892,131.206z"/>
</svg>