<svg width="20" height="20" viewBox="0 0 20 20" fill="none" xmlns="http://www.w3.org/2000/svg">
<g clip-path="url(#clip0_100_2190)">
<path d="M18.539 12.8056C18.0089 14.0593 17.1797 15.1641 16.1239 16.0233C15.0682 16.8826 13.818 17.4701 12.4827 17.7346C11.1474 17.999 9.7677 17.9324 8.46413 17.5404C7.16057 17.1485 5.97287 16.4431 5.00486 15.4861C4.03686 14.5291 3.31802 13.3495 2.91121 12.0505C2.50439 10.7515 2.42198 9.37265 2.67118 8.03444C2.92037 6.69623 3.49359 5.43943 4.34072 4.37393C5.18784 3.30843 6.28308 2.46667 7.53068 1.92224" stroke="#121212" stroke-width="1.5" stroke-linecap="round" stroke-linejoin="round"/>
<path d="M19.1973 9.56392C19.1973 8.46958 18.9818 7.38594 18.563 6.3749C18.1442 5.36385 17.5304 4.44519 16.7566 3.67137C15.9827 2.89755 15.0641 2.28372 14.053 1.86493C13.042 1.44614 11.9584 1.23059 10.864 1.23059V9.56392H19.1973Z" stroke="#121212" stroke-width="1.5" stroke-linecap="round" stroke-linejoin="round"/>
</g>
<defs>
<clipPath id="clip0_100_2190">
<rect width="19" height="19" fill="white" transform="translate(1)"/>
</clipPath>
</defs>
</svg>
