<?xml version="1.0" encoding="iso-8859-1"?>
<!-- Uploaded to: SVG Repo, www.svgrepo.com, Generator: SVG Repo Mixer Tools -->
<!DOCTYPE svg PUBLIC "-//W3C//DTD SVG 1.1//EN" "http://www.w3.org/Graphics/SVG/1.1/DTD/svg11.dtd">
<svg fill="#000000" height="800px" width="800px" version="1.1" id="Capa_1" xmlns="http://www.w3.org/2000/svg" xmlns:xlink="http://www.w3.org/1999/xlink" 
	 viewBox="0 0 297 297" xml:space="preserve">
<g>
	<path d="M292.943,168.477c0.83-2.996,0.213-6.209-1.67-8.684c-1.882-2.474-4.811-3.927-7.921-3.927H13.647
		c-3.109,0-6.039,1.453-7.921,3.927c-1.883,2.475-2.5,5.688-1.67,8.683c16.204,58.481,66.323,101.01,125.403,108.62H27.27
		c-5.496,0-9.952,4.456-9.952,9.952c0,5.496,4.456,9.952,9.952,9.952h242.459c5.496,0,9.952-4.456,9.952-9.952
		c0-5.496-4.456-9.952-9.952-9.952H167.54C226.618,269.485,276.737,226.957,292.943,168.477z M148.5,258.415
		c-53.742,0-101.772-33.386-121.06-82.645h242.118C250.269,225.029,202.24,258.415,148.5,258.415z"/>
	<path d="M79.227,123.815c5.495,0,9.952-4.456,9.952-9.952V44.59c0-5.496-4.457-9.952-9.952-9.952c-5.496,0-9.953,4.456-9.953,9.952
		v69.273C69.273,119.359,73.73,123.815,79.227,123.815z"/>
	<path d="M217.773,123.815c5.496,0,9.953-4.456,9.953-9.952V44.59c0-5.496-4.457-9.952-9.953-9.952
		c-5.495,0-9.952,4.456-9.952,9.952v69.273C207.821,119.359,212.278,123.815,217.773,123.815z"/>
	<path d="M148.5,89.179c5.496,0,9.952-4.456,9.952-9.952V9.952c0-5.496-4.456-9.952-9.952-9.952c-5.496,0-9.952,4.456-9.952,9.952
		v69.274C138.548,84.723,143.004,89.179,148.5,89.179z"/>
</g>
</svg>