<svg width="20" height="22" viewBox="0 0 20 22" fill="none" xmlns="http://www.w3.org/2000/svg">
<path fill-rule="evenodd" clip-rule="evenodd" d="M17.7893 3.72054L11.9393 0.480536C10.7821 -0.160179 9.37658 -0.160179 8.21934 0.480536L2.35934 3.72054C1.13282 4.38516 0.366131 5.66553 0.35934 7.06054V13.3605C0.363607 13.9803 0.514376 14.5902 0.79934 15.1405L1.23934 15.8405C1.13525 16.1843 1.08136 16.5413 1.07934 16.9005C1.08279 17.6068 1.27995 18.2986 1.64934 18.9005L0.21934 20.4805C-0.0731134 20.7734 -0.0731134 21.2477 0.21934 21.5405C0.356347 21.6718 0.539628 21.7437 0.72934 21.7405C0.950818 21.7401 1.16169 21.6456 1.30934 21.4805L2.67934 20.0405C4.19773 21.2176 6.36182 21.0488 7.67934 19.6505L8.23934 19.9605C9.39663 20.6147 10.8121 20.6147 11.9693 19.9605L17.8193 16.7105C19.0459 16.041 19.8119 14.7579 19.8193 13.3605V7.06054C19.8066 5.65911 19.0275 4.37719 17.7893 3.72054ZM4.93934 19.3105C3.66581 19.2285 2.67482 18.1717 2.67482 16.8955C2.67482 15.6194 3.66581 14.5625 4.93934 14.4805C6.21287 14.5625 7.20386 15.6194 7.20386 16.8955C7.20386 18.1717 6.21287 19.2285 4.93934 19.3105ZM17.0593 15.3605C17.7882 14.9565 18.2458 14.1938 18.2593 13.3605V7.03054C18.2458 6.19723 17.7882 5.43461 17.0593 5.03054L11.2093 1.78054C10.5054 1.38113 9.6433 1.38113 8.93934 1.78054L3.08934 5.06054C2.36044 5.46461 1.90287 6.22723 1.88934 7.06054V13.3605C1.89361 13.6818 1.96515 13.9986 2.09934 14.2905C2.81249 13.4643 3.84795 12.9867 4.93934 12.9805C6.21715 13.0215 7.39519 13.6814 8.09746 14.7498C8.79972 15.8181 8.93844 17.1612 8.46934 18.3505L8.93934 18.6105C9.6433 19.0099 10.5054 19.0099 11.2093 18.6105L17.0593 15.3605Z" fill="black"/>
<path d="M14.9293 6.15054L10.5793 8.58054C10.2699 8.75917 9.88874 8.75917 9.57934 8.58054L5.21934 6.15054C4.86287 5.95669 4.41679 6.08605 4.21934 6.44054C4.03119 6.7976 4.15935 7.23953 4.50934 7.44054L8.87934 9.87054C9.03166 9.94413 9.18867 10.0076 9.34934 10.0605V15.7605C9.34934 16.1747 9.68513 16.5105 10.0993 16.5105C10.5136 16.5105 10.8493 16.1747 10.8493 15.7605V10.0705C11.0075 10.0236 11.1614 9.96342 11.3093 9.89054L15.6593 7.48054C16.0115 7.27444 16.1343 6.8246 15.9357 6.46815C15.737 6.11171 15.2899 5.97947 14.9293 6.17054V6.15054Z" fill="black"/>
</svg>
