<?xml version="1.0" encoding="iso-8859-1"?>
<!-- Uploaded to: SVG Repo, www.svgrepo.com, Generator: SVG Repo Mixer Tools -->
<!DOCTYPE svg PUBLIC "-//W3C//DTD SVG 1.1//EN" "http://www.w3.org/Graphics/SVG/1.1/DTD/svg11.dtd">
<svg fill="#000000" height="800px" width="800px" version="1.1" id="Capa_1" xmlns="http://www.w3.org/2000/svg" xmlns:xlink="http://www.w3.org/1999/xlink" 
	 viewBox="0 0 297 297" xml:space="preserve">
<g>
	<path d="M296.736,156.376c-1.075-12.754-5.364-26.255-10.928-34.396c-5.564-8.14-16.585-17.039-28.078-22.673
		c-8.898-4.36-17.206-6.352-24.442-5.991c-5.402-9.79-15.883-18.962-30.789-26.722c-17.548-9.135-38.744-15.038-53.999-15.038
		c-15.255,0-36.451,5.903-53.999,15.038c-14.905,7.758-25.386,16.932-30.789,26.721c-7.235-0.362-15.545,1.63-24.442,5.992
		c-11.493,5.634-22.515,14.533-28.078,22.674c-5.563,8.141-9.852,21.642-10.928,34.396c-1.393,16.523,2.767,29.123,11.7,35.612
		c-0.06,1.377-0.1,2.757-0.1,4.142v15.877c0,18.438,15.107,33.438,33.678,33.438h205.916c18.57,0,33.678-15,33.678-33.438V196.13
		c0-1.385-0.04-2.765-0.1-4.142C293.97,185.499,298.129,172.899,296.736,156.376z M103.387,83.663
		C117.936,76.09,136.487,70.8,148.5,70.8c12.013,0,30.563,5.29,45.113,12.863c7.375,3.84,13.31,7.991,17.519,12.121
		c-19.135-8.149-40.491-12.476-62.632-12.476s-43.497,4.326-62.632,12.476C90.077,91.654,96.012,87.503,103.387,83.663z
		 M19.369,159.022c0.883-10.466,4.582-21.607,7.71-26.183c3.129-4.578,11.23-11.63,20.66-16.252
		c2.631-1.289,5.169-2.285,7.511-2.977c-0.886,0.683-1.764,1.374-2.63,2.078C37.401,128.055,26.151,142.842,19.369,159.022z
		 M265.891,212.007c0,7.825-6.475,14.192-14.434,14.192H45.542c-7.959,0-14.434-6.367-14.434-14.192V196.13
		c0-51.599,52.661-93.576,117.392-93.576s117.392,41.978,117.392,93.576V212.007z M277.631,159.022
		c-6.782-16.181-18.032-30.968-33.251-43.333c-0.867-0.705-1.745-1.396-2.631-2.08c2.342,0.692,4.881,1.688,7.512,2.979
		c9.43,4.622,17.531,11.674,20.66,16.252C273.049,137.416,276.748,148.556,277.631,159.022z"/>
	<circle cx="148.5" cy="150.184" r="9.623"/>
	<circle cx="148.5" cy="191.558" r="9.622"/>
	<circle cx="169.186" cy="170.872" r="9.622"/>
	<circle cx="127.813" cy="170.872" r="9.622"/>
</g>
</svg>